<?xml version="1.0" encoding="UTF-8"?>
<svg id="Calque_2" data-name="Calque 2" xmlns="http://www.w3.org/2000/svg" viewBox="0 0 319.26 118.01">
  <defs>
    <style>
      .cls-1 {
        fill: #fff;
        stroke: #3653a4;
        stroke-miterlimit: 10;
      }

      .cls-2 {
        fill: #3653a4;
        stroke-width: 0px;
      }
    </style>
  </defs>
  <g id="v1">
    <g id="text_version_vectorisé" data-name="text version vectorisé">
      <g>
        <path class="cls-2" d="m0,.45h16.25v25.97h.18c1.27-2.27,2.63-4.54,3.9-6.72L32.14.45h20.16l-19.43,26.06,20.16,35.14h-18.98l-12.89-24.79-4.9,6.26v18.52H0V.45Z"/>
        <path class="cls-2" d="m58.65,1.27c3.72-.64,11.8-1.27,19.34-1.27,8.72,0,13.98.64,18.7,3,4.81,2.18,8.26,6.63,8.26,12.62,0,5.08-2.81,10.08-9.99,12.8v.18c7.44,2.09,11.98,7.63,11.98,14.89,0,5.81-2.81,10.35-6.9,13.35-4.54,3.45-12.17,5.54-25.24,5.54-7.45,0-12.89-.45-16.16-1V1.27Zm16.25,22.7h3.27c6.99,0,10.35-2.45,10.35-6.36,0-3.54-2.72-5.81-8.26-5.81-2.72,0-4.27.09-5.36.36v11.8Zm0,26.24c1.18.18,2.63.18,4.72.18,5.45,0,10.08-2.18,10.08-7.63s-4.72-7.17-10.89-7.17h-3.9v14.62Z"/>
        <path class="cls-2" d="m185.76,39.77c-.27-6.99-.36-15.16-.36-24.69h-.27c-1.91,8.08-4.45,17.25-6.45,23.97l-6.08,21.33h-12.8l-5.08-21.24c-1.63-6.63-3.45-15.71-4.9-24.06h-.18c-.36,8.62-.64,17.7-.91,24.69l-1,21.88h-15.07L136.47.45h22.06l3.99,16.43c1.73,6.81,3.54,14.98,4.81,22.42h.27c1.73-7.44,3.72-16.07,5.54-22.52L177.78.45h21.52l3.09,61.19h-15.89l-.73-21.88Z"/>
        <path class="cls-2" d="m250.87,36.95h-21.97v11.26h24.6v13.44h-41.04V.45h39.77v13.44h-23.33v9.81h21.97v13.25Z"/>
        <path class="cls-2" d="m262.58,1.36c5.17-.91,12.17-1.36,19.43-1.36,11.8,0,19.16,1.91,25.24,6.08,6.72,4.63,11.08,12.26,11.08,23.51,0,12.53-4.72,20.61-10.71,25.24-6.72,5.17-16.8,7.54-28.78,7.54-7.81,0-13.16-.54-16.25-1V1.36Zm16.34,48.12c.82.18,2.36.18,3.45.18,10.62.09,18.52-5.72,18.52-19.52,0-11.98-7.08-17.61-16.98-17.61-2.54,0-4.18.18-4.99.36v36.59Z"/>
      </g>
      <g>
        <path class="cls-1" d="m28.28,106.26c-.13-3.44-.18-7.46-.18-12.15h-.13c-.94,3.98-2.19,8.49-3.17,11.79l-2.99,10.5h-6.3l-2.5-10.46c-.8-3.26-1.7-7.73-2.41-11.84h-.09c-.18,4.24-.31,8.71-.45,12.15l-.49,10.77H2.14l1.88-30.11h10.86l1.97,8.09c.85,3.35,1.74,7.37,2.37,11.04h.13c.85-3.66,1.83-7.91,2.72-11.08l2.28-8.04h10.59l1.52,30.11h-7.82l-.36-10.77Z"/>
        <path class="cls-1" d="m47.71,108.85c.27,1.74,2.77,2.72,5.63,2.72,2.05,0,4.02-.22,5.99-.85l1.03,5.41c-2.64,1.03-5.5,1.38-8.22,1.38-7.73,0-12.11-4.29-12.11-11.26,0-5.09,3.31-11.71,11.39-11.71,7.1,0,10.14,5.23,10.14,11.26,0,1.29-.18,2.5-.31,3.04h-13.54Zm6.43-5.45c0-1.25-.58-3.57-3.13-3.57-2.37,0-3.26,2.19-3.4,3.57h6.52Z"/>
        <path class="cls-1" d="m87.47,85.3v24.8c0,2.72.09,5.45.18,6.92h-7.15l-.31-2.95h-.09c-1.43,2.46-4.11,3.44-6.66,3.44-5.09,0-9.34-4.42-9.34-11.3-.04-7.42,4.65-11.66,9.83-11.66,2.41,0,4.42.71,5.41,2.14h.09v-11.39h8.04Zm-8.04,19.26c0-.31,0-.71-.04-1.03-.31-1.56-1.52-2.81-3.17-2.81-2.72,0-3.93,2.41-3.93,5.27,0,3.4,1.65,5.14,3.89,5.14,1.61,0,2.86-1.16,3.13-2.64.13-.45.13-.94.13-1.47v-2.46Z"/>
        <path class="cls-1" d="m100.6,89.01c0,2.1-1.61,3.8-4.16,3.8s-4.07-1.7-4.07-3.8c0-2.23,1.61-3.84,4.11-3.84s4.07,1.61,4.11,3.84Zm-8.18,28.01v-21.98h8.09v21.98h-8.09Z"/>
        <path class="cls-1" d="m104.08,112.42l5.63-6.84c1.39-1.56,2.41-2.68,3.75-4.07v-.09h-8.67v-6.39h18.5v4.83l-5.27,6.39c-1.3,1.52-2.55,2.99-3.89,4.29v.09h9.56v6.39h-19.61v-4.6Z"/>
        <path class="cls-1" d="m135.36,89.01c0,2.1-1.61,3.8-4.16,3.8s-4.07-1.7-4.07-3.8c0-2.23,1.61-3.84,4.11-3.84s4.07,1.61,4.11,3.84Zm-8.18,28.01v-21.98h8.09v21.98h-8.09Z"/>
        <path class="cls-1" d="m140.22,102.55c0-2.95-.09-5.45-.18-7.51h6.97l.36,2.81h.13c.8-1.16,2.95-3.31,6.61-3.31,5.14,0,7.95,3.48,7.95,9.52v12.96h-8.09v-11.97c0-2.55-.85-4.02-2.81-4.02-1.56,0-2.28,1.07-2.64,1.92-.18.4-.22,1.03-.22,1.61v12.46h-8.09v-14.48Z"/>
        <path class="cls-1" d="m175.52,88.79v6.25h4.56v5.9h-4.56v6.3c0,2.64.58,3.71,2.55,3.71.94,0,1.25,0,1.92-.18v6.12c-.94.36-2.73.62-4.78.62-2.37,0-4.33-.85-5.5-2.01-1.34-1.34-2.05-3.48-2.05-6.83v-7.73h-2.73v-5.9h2.73v-4.11l7.86-2.14Z"/>
        <path class="cls-1" d="m190.17,108.85c.27,1.74,2.77,2.72,5.63,2.72,2.05,0,4.02-.22,5.99-.85l1.03,5.41c-2.64,1.03-5.5,1.38-8.22,1.38-7.73,0-12.11-4.29-12.11-11.26,0-5.09,3.31-11.71,11.39-11.71,7.1,0,10.14,5.23,10.14,11.26,0,1.29-.18,2.5-.31,3.04h-13.54Zm6.43-5.45c0-1.25-.58-3.57-3.13-3.57-2.37,0-3.26,2.19-3.4,3.57h6.52Z"/>
        <path class="cls-1" d="m224.52,116.53c-1.3.62-3.57.94-6.03.94-7.33,0-11.93-4.29-11.93-11.26,0-6.3,4.33-11.66,12.91-11.66,1.56,0,3.48.22,5.05.76l-1.12,5.9c-.76-.31-1.83-.54-3.48-.54-2.99,0-5.14,2.06-5.09,5.23,0,3.62,2.46,5.32,5.32,5.32,1.38,0,2.5-.18,3.53-.58l.85,5.9Z"/>
        <path class="cls-1" d="m227.82,85.3h8.09v12.06h.09c.71-.89,1.61-1.56,2.59-2.06.98-.49,2.19-.76,3.35-.76,4.96,0,7.73,3.53,7.73,9.74v12.73h-8.09v-11.84c0-2.59-.85-4.16-2.86-4.16-1.52,0-2.23.89-2.64,1.74-.13.36-.18.94-.18,1.29v12.96h-8.09v-31.72Z"/>
        <path class="cls-1" d="m254.58,102.55c0-2.95-.09-5.45-.18-7.51h6.97l.36,2.81h.13c.8-1.16,2.95-3.31,6.61-3.31,5.14,0,7.95,3.48,7.95,9.52v12.96h-8.09v-11.97c0-2.55-.85-4.02-2.81-4.02-1.56,0-2.28,1.07-2.64,1.92-.18.4-.22,1.03-.22,1.61v12.46h-8.09v-14.48Z"/>
        <path class="cls-1" d="m289.52,89.01c0,2.1-1.61,3.8-4.16,3.8s-4.07-1.7-4.07-3.8c0-2.23,1.61-3.84,4.11-3.84s4.07,1.61,4.11,3.84Zm-8.18,28.01v-21.98h8.09v21.98h-8.09Z"/>
        <path class="cls-1" d="m302.47,103.98h.09c.49-.98.94-1.88,1.43-2.68l3.62-6.25h9.61l-7.59,8.85,8.71,13.14h-9.92l-4.33-8.4-1.61,2.14v6.25h-8.04v-31.72h8.04v18.68Z"/>
      </g>
    </g>
  </g>
</svg>