<?xml version="1.0" encoding="UTF-8"?>
<svg id="Calque_2" xmlns="http://www.w3.org/2000/svg" viewBox="0 0 397 271">
  <defs>
    <style>
      .cls-1 {
        opacity: .14;
      }

      .cls-2 {
        fill: #fff;
      }

      .cls-3 {
        opacity: .18;
      }

      .cls-4 {
        fill: #012169;
      }

      .cls-5 {
        opacity: .1;
      }

      .cls-6 {
        fill: #da0e15;
      }
    </style>
  </defs>
  <g id="icons">
    <g>
      <rect id="bg" class="cls-2" width="397" height="270" rx="37.59" ry="37.59"/>
      <path class="cls-6" d="M1,118c7.59-.01,15.18-.03,22.76-.03,50.94,0,101.89,0,152.83-.01,6.28,0,5.7.73,5.7-5.88-.02-35.03-.07-70.05-.11-105.08,0-1.66,0-3.33,0-5.29h27.83v116.1h185.94v34.27h-185.77v116.3h-28.1c0-6-.01-11.87,0-17.75.07-31.8.12-63.61.25-95.41.01-2.64-1.03-3.22-3.43-3.22-53.13.07-106.26.07-159.39.08-6.17,0-12.34-.05-18.52-.08v-34Z"/>
      <path class="cls-4" d="M1,29.91c6.94,4.51,13.89,9.02,20.83,13.54.97.63,1.89,1.33,2.86,1.95,11.03,7.06,22.14,14,33.09,21.19,13.48,8.85,26.83,17.91,41.12,27.46H1c0-21.38,0-42.76,0-64.14Z"/>
      <path class="cls-4" d="M1,175.95h85.46c-1.52,1.14-2.31,1.81-3.17,2.36-10.06,6.45-20.19,12.81-30.2,19.35-14.06,9.19-28.05,18.49-42.05,27.78-3.39,2.25-6.7,4.61-10.04,6.92,0-18.8,0-37.61,0-56.41Z"/>
      <path class="cls-4" d="M364.18,268.43h-134.42v-88.18c44.88,29.44,89.18,58.5,134.42,88.18Z"/>
      <path class="cls-4" d="M162.44,185.49v82.88H36.77c2.04-1.31,3.41-2.17,4.76-3.05,18.71-12.17,37.44-24.32,56.13-36.53,13.41-8.76,26.81-17.56,40.15-26.44,7.96-5.3,15.8-10.8,24.63-16.85Z"/>
      <path class="cls-4" d="M351.2.71c-6.95,4.47-13.3,8.51-19.61,12.63-13.75,8.96-27.49,17.94-41.2,26.95-13.07,8.58-26.14,17.18-39.16,25.84-5.96,3.96-11.82,8.09-17.74,12.11-1.03.7-2.16,1.27-3.66,2.14V.71h121.38Z"/>
      <path class="cls-4" d="M162.39.74v74.2C124.76,50.15,87.61,25.67,49.79.74h112.6Z"/>
      <path class="cls-4" d="M395.82,93.97h-93.96c1.69-1.24,2.61-2,3.6-2.64,9.84-6.31,19.75-12.53,29.54-18.91,13.42-8.75,26.82-17.54,40.12-26.46,6.79-4.55,13.36-9.43,20.69-14.63v62.65Z"/>
      <path class="cls-6" d="M158.44,93.97c-9.48,0-18.06.06-26.65-.07-1.16-.02-2.4-.8-3.45-1.47-11.07-7.03-22.15-14.03-33.13-21.19-13.43-8.74-26.76-17.63-40.15-26.44-13.17-8.67-26.36-17.3-39.49-26.02-2.53-1.68-4.82-3.74-7.54-5.89,3.11-4.15,7.12-7.17,11.97-9,.89-.34,2.44.41,3.43,1.05,18.71,12.17,37.4,24.38,56.07,36.62,12.54,8.22,25.06,16.47,37.56,24.77,13.55,9,27.05,18.06,41.39,27.63Z"/>
      <path class="cls-6" d="M242.82,93.2c10.39-6.64,20.82-13.22,31.16-19.95,14.52-9.44,28.98-18.96,43.43-28.49,12.95-8.54,25.88-17.13,38.79-25.73,6.5-4.33,13-8.67,19.35-13.2,2.17-1.55,3.96-1.54,5.86.05,3.1,2.59,6.16,5.25,10.16,8.67-5.68,3.76-10.38,6.96-15.18,10.03-8.77,5.61-17.65,11.05-26.38,16.72-13.12,8.52-26.15,17.18-39.21,25.79-12.63,8.33-25.21,16.74-37.93,24.94-1.81,1.16-4.24,1.81-6.41,1.87-7.81.22-15.62.09-23.44.09-.07-.26-.13-.52-.2-.78Z"/>
      <path class="cls-6" d="M145.26,176.77c-6.78,4.34-13.6,8.64-20.35,13.04-18.06,11.76-36.11,23.54-54.12,35.37-13.18,8.65-26.32,17.38-39.44,26.12-5,3.33-9.92,6.78-14.81,10.26-1.77,1.26-3.28,1.35-4.69-.35-2.74-3.3-5.45-6.63-8.48-10.34,5.92-3.79,11.01-7,16.05-10.28,19.69-12.78,39.39-25.56,59.04-38.4,12.56-8.2,25.02-16.54,37.57-24.75,1.12-.73,2.56-1.34,3.87-1.36,8.35-.12,16.7-.06,25.06-.06.1.25.2.5.3.75Z"/>
      <path class="cls-6" d="M254.81,176.02c9.41,0,17.75-.06,26.09.06,1.3.02,2.71.69,3.85,1.41,10.89,6.81,21.8,13.59,32.58,20.57,13.77,8.92,27.44,18.01,41.14,27.05,11.02,7.27,22.02,14.57,33.02,21.86.74.49,1.42,1.06,2.94,2.19-2.69,3.76-5.19,7.53-8.05,11.01-.61.74-2.92,1.04-3.77.49-16.59-10.72-33.11-21.56-49.59-32.46-12.51-8.27-24.93-16.69-37.42-24.98-12.92-8.58-25.88-17.08-38.81-25.63-.4-.27-.76-.6-1.98-1.58Z"/>
      <path class="cls-4" d="M315.39,176.01h80.56v54.08c-27.07-17.87-53.92-35.6-80.78-53.33.07-.25.15-.5.22-.75Z"/>
      <path id="top" class="cls-1" d="M37,0h321.2C379.08,0,396,16.92,396,37.8v71.2L37,0Z"/>
      <path id="mid" class="cls-5" d="M396,231h-85L37,0h321.63C379.27,0,396,16.73,396,37.37v193.63Z"/>
      <path id="bot" class="cls-3" d="M0,231h396v1.83c0,21.07-17.1,38.17-38.17,38.17H38.17c-21.07,0-38.17-17.1-38.17-38.17v-1.83h0Z"/>
    </g>
  </g>
</svg>