<?xml version="1.0" encoding="UTF-8"?>
<svg id="Calque_2" xmlns="http://www.w3.org/2000/svg" viewBox="0 0 243 242">
  <g id="icons">
    <g id="sun">
      <path d="M121,76c24.81,0,45,20.19,45,45s-20.19,45-45,45-45-20.19-45-45,20.19-45,45-45M121,60c-33.69,0-61,27.31-61,61s27.31,61,61,61,61-27.31,61-61-27.31-61-61-61h0Z"/>
      <path d="M121.5,41c-4.14,0-7.5-3.36-7.5-7.5V7.5c0-4.14,3.36-7.5,7.5-7.5s7.5,3.36,7.5,7.5v26c0,4.14-3.36,7.5-7.5,7.5Z"/>
      <path d="M121.5,242c-4.14,0-7.5-3.36-7.5-7.5v-26c0-4.14,3.36-7.5,7.5-7.5s7.5,3.36,7.5,7.5v26c0,4.14-3.36,7.5-7.5,7.5Z"/>
      <g>
        <line x1="40.31" y1="40.31" x2="58.69" y2="58.69"/>
        <path d="M64,64c-2.93,2.93-7.68,2.93-10.61,0l-18.38-18.38c-2.93-2.93-2.93-7.68,0-10.61s7.68-2.93,10.61,0l18.38,18.38c2.93,2.93,2.93,7.68,0,10.61Z"/>
      </g>
      <g>
        <line x1="183.31" y1="183.31" x2="201.69" y2="201.69"/>
        <path d="M207,207c-2.93,2.93-7.68,2.93-10.61,0l-18.38-18.38c-2.93-2.93-2.93-7.68,0-10.61,2.93-2.93,7.68-2.93,10.61,0l18.38,18.38c2.93,2.93,2.93,7.68,0,10.61Z"/>
      </g>
      <g>
        <line x1="58.69" y1="183.31" x2="40.31" y2="201.69"/>
        <path d="M35,207c-2.93-2.93-2.93-7.68,0-10.61l18.38-18.38c2.93-2.93,7.68-2.93,10.61,0,2.93,2.93,2.93,7.68,0,10.61l-18.38,18.38c-2.93,2.93-7.68,2.93-10.61,0Z"/>
      </g>
      <g>
        <line x1="201.69" y1="41.31" x2="183.31" y2="59.69"/>
        <path d="M178,65c-2.93-2.93-2.93-7.68,0-10.61l18.38-18.38c2.93-2.93,7.68-2.93,10.61,0s2.93,7.68,0,10.61l-18.38,18.38c-2.93,2.93-7.68,2.93-10.61,0Z"/>
      </g>
      <path d="M41,121.5c0,4.14-3.36,7.5-7.5,7.5H7.5c-4.14,0-7.5-3.36-7.5-7.5,0-4.14,3.36-7.5,7.5-7.5h26c4.14,0,7.5,3.36,7.5,7.5Z"/>
      <path d="M243,121.5c0,4.14-3.36,7.5-7.5,7.5h-26c-4.14,0-7.5-3.36-7.5-7.5s3.36-7.5,7.5-7.5h26c4.14,0,7.5,3.36,7.5,7.5Z"/>
    </g>
  </g>
</svg>